<?xml version="1.0" encoding="UTF-8"?>
<!-- Created with Inkscape (http://www.inkscape.org/) -->
<svg width="16" height="6" version="1.1" viewBox="0 0 4.2333 1.5875" xml:space="preserve" xmlns="http://www.w3.org/2000/svg" xmlns:xlink="http://www.w3.org/1999/xlink"><defs><linearGradient id="linearGradient6670" x1="-1.7154" x2="2.6646" y1="1.3743" y2="1.3743" gradientUnits="userSpaceOnUse"><stop stop-color="#00bbd7" offset=".21"/><stop stop-color="#00ca98" offset="1"/></linearGradient></defs><g><path class="UnoptimicedTransforms" transform="matrix(.90564 0 0 .90564 1.6858 -.47068)" d="m2.6466 0.81724s-0.021574 0.014205-0.044508 0.026819c-0.022934 0.012614-0.048519 0.012664-0.079885 0.005706-0.032108-0.007122-0.060485-0.001141-0.060485-0.001141s-0.021129 0.007346-0.074179 0.051926l-0.050784-0.050784-0.089015 0.089586c-0.05766-0.042824-0.15982-0.047333-0.22482-0.047931-0.28807 1.646e-5 -0.52111 0.23334-0.52097 0.52097 1.456e-4 0.28743 0.2331 0.52038 0.52097 0.5204 0.28787-1.64e-5 0.52139-0.23297 0.52154-0.5204 2.1e-5 -0.12623-0.045657-0.24798-0.12896-0.34294l0.069614-0.070756-0.07532-0.075891 0.019401-0.021113 0.02796-0.022254c0.017828-0.01045 0.020643-0.010001 0.033095-0.0097l0.021113 0.003994c0.015467 0.003941 0.050417 0.002021 0.066761 0 0.014198-0.001756 0.030056-0.006393 0.067332-0.029101l0.013695-0.010842zm-3.4453 0.077603 0.34008 0.48102-0.36975 0.50841 0.094151 0.00799 0.32468-0.45078 0.34522 0.44508 0.10499-0.00514-0.3903-0.50271 0.34008-0.48159-0.086162 5.7061e-4 -0.30014 0.42625-0.30699-0.4291zm-0.20941 5.7061e-4s-0.00161 0.39713-0.015977 0.59515c-0.00386 0.053222-0.00127 0.10881-0.01883 0.1592-0.012992 0.037287-0.035455 0.071946-0.062196 0.101-0.025745 0.027969-0.056715 0.052862-0.091868 0.067332-0.04245 0.017473-0.090494 0.021428-0.13638 0.019971-0.046408-0.00147-0.094461-0.0074-0.1358-0.028531-0.032084-0.016397-0.057949-0.044331-0.080456-0.072467-0.018386-0.022986-0.033623-0.049257-0.043366-0.077032-0.018329-0.052253-0.021695-0.1092-0.026819-0.16434-0.018464-0.19868-0.014265-0.598-0.014265-0.598l-0.07532-5.7061e-4s-0.00744 0.38807 0.00685 0.58145c0.0045 0.0609 0.0073 0.12304 0.025107 0.18145 0.013747 0.045096 0.030947 0.091947 0.062196 0.12725 0.037698 0.042583 0.089947 0.071641 0.14265 0.093009 0.046427 0.018819 0.0977 0.029503 0.14779 0.028531 0.060048-0.00117 0.12059-0.016039 0.17518-0.041084 0.044375-0.02036 0.0863-0.049628 0.11869-0.086162 0.031765-0.035832 0.055311-0.080018 0.070185-0.12553 0.019095-0.058432 0.017947-0.12184 0.022254-0.18317 0.013472-0.19181 0.010271-0.57632 0.010271-0.57632zm2.307 5.7061e-4 0.00114 0.8776-0.57346-0.87474-0.089015-0.001141 0.002282 0.99172 0.083309 0.00285-0.002853-0.86048 0.56148 0.85477 0.093009 0.00285-0.00285-0.99172zm-1.1886 0.54208v0.080456l0.39657 0.00514v-0.079885z" fill="url(#linearGradient6670)" stroke="#804c4c" stroke-width=".0079375"/><path d="m3.2065 0.65417v-0.013103l0.00654-0.00936 0.00561-0.012169 0.00749-0.00936 0.00936-0.00936 0.00843 0.00374 0.010294 0.00842 0.011225-0.00749 0.00188-0.00842 0.00561-0.01404 0.00843-0.016848-0.015912-0.014975 0.00374-0.011238 0.017784-0.00561 0.033696-0.017784h0.014975l-0.00281 0.01404-0.00561 0.017784 0.015912-0.011225 0.014975-0.026208h0.022464l0.018721-0.00842 0.032761-0.024336 0.028081 0.00281 0.032761 0.014975 0.015912 0.012169 0.029952-9.328e-4 -1e-6 -0.00375-0.014977-0.00654-0.00561-0.00749 0.00281-0.00936 0.00188-0.012169 0.024336-0.019656 0.010294-9.328e-4 0.00188 0.010294-0.022464 0.021528 0.00188 0.00749 0.011225 0.00561 0.011225-0.010294-0.00188-0.00749 0.014975 2.2e-6 0.014975-0.011238 0.00374-0.01404 0.00468-0.01404 0.026208 0.00374 0.029014-0.00654 0.00468-0.016848-0.00188-0.014975-0.012169-0.00749 0.00795-0.00654c-0.041549-0.012699-0.084741-0.019175-0.12818-0.019197-0.010772 7.13e-5 -0.021549 5.396e-4 -0.032293 0.00141l9.328e-4 0.013103-0.027144 0.021528-0.036505 0.023399-0.036505 0.021528h-0.068333l-0.032761 0.00468 9.33e-4 -0.00654c0.012518-0.00683 0.019354-0.019355 0.029016-0.029017-0.14596 0.075941-0.23764 0.22717-0.23771 0.39218 8.56e-5 0.24401 0.19722 0.44178 0.44039 0.44179 0.20509 8.3e-6 0.38304-0.14204 0.42916-0.34258l-0.014975 0.00468-0.011225 0.016848-0.017784 9.329e-4 -0.00468-0.019657 9.328e-4 -0.018721 0.0131-0.030887 0.0131-0.019657 0.012169-0.00188 0.011225 0.00843 0.00702 0.00281c0.00145-0.013995 0.00222-0.028051 0.00234-0.04212-1.415e-4 -0.14218-0.06841-0.27559-0.18346-0.35852l-0.00188 0.00842 0.00188 0.00468 0.00843 0.010294 0.017784 0.017784 0.016848 0.014975 0.00936 0.017784 0.015912 0.022464 0.019657 0.029952 0.016848 0.015912 9.327e-4 0.016848-0.012169 0.014975 0.00374 0.013103 0.010294 0.012169s0.014037 0.032758 0.0131 0.03744c-9.42e-4 0.00468 9.326e-4 0.039312 9.326e-4 0.039312l-0.00374 0.026208-0.010294 0.034632 0.00749 0.016848 0.00749 0.029952 0.00281 0.021527-9.328e-4 0.00561-0.016848 9.329e-4 -0.015912-0.0131-0.00468 0.00281 0.00188 0.016848 0.00374 0.00563 0.00188 0.010294 9.329e-4 0.018721 0.00654 0.010294 0.00281 0.012169 0.010294 0.011225v0.01686l-0.00468 0.021527-0.012169-0.012169-0.014039-0.017784-0.021527-0.016848-0.00936-0.010294 9.328e-4 -0.00563 0.00374-0.00374 0.019657 9.327e-4 0.00374-0.012169-0.011225-0.011225 0.00468-0.010294-0.012169-0.015912 0.00281-0.020593-0.015912-0.00188-0.015912-0.010294-0.017784-0.020592-0.028081 0.038376-0.023399 0.033696 0.00281 0.019657 0.00936 0.012169 0.00468 0.0131 9.33e-4 0.022464h-0.00936l-0.015912-0.00374v-0.017784l-0.014975 0.00936-0.00654-0.00374-0.00749-0.00936-0.010294-0.03276-0.00936-0.024336-0.021527-0.026208-0.011225-0.0131-0.011225-0.00468-0.03276-0.00281h-0.033696l-0.00468 0.00561 0.00561 0.00468 0.011225 0.00281 0.00188 0.010294-0.00561 0.014039-0.035569 0.032761-0.030887 0.014039c-0.00839 0.00352-0.00936 0.015599-0.014046 0.023397l0.021527-0.00188-9.329e-4 0.010294-0.078625 0.10015-0.00936 0.014039v0.014975l0.00936 9.329e-4 0.00188 0.01872-0.00188 0.023399-0.00561 0.015912-0.022464 0.00281-0.00188 0.00749 9.327e-4 0.022464-0.00468 0.00749-0.012169 0.011225-0.0131 0.015912-0.032761 0.00188-0.03276-0.00281-0.015912-0.00936-0.014039-0.018721-0.012169-0.018721-0.00281-0.014039-0.018721-0.021527-0.010294-0.016848-0.0131-0.00374v-0.017791l0.00843-0.0131 0.00654-0.014039v-0.011225l-0.0131-0.00281v-0.015912l-0.00561-0.012169-0.014975-0.014039-9.327e-4 -0.014975 0.00374-0.031823-0.00374-0.00843-0.0131-0.00374h-0.014047l-0.010294-0.00843-0.012169-0.012169-0.021527-0.014039-0.018721-0.016848-0.012169-0.025272-0.00281-0.020592 9.329e-4 -0.028081 0.00936-0.029016 0.00654-0.031825 0.017784-0.026208 0.028081-0.027143 0.029014-0.016848 0.016848 9.418e-4zm0.065531 0.057659-0.038048 0.029593 0.010566 0.025365 0.029592 0.025365 0.059185 0.00846 0.046503-0.00634-0.01691-0.025365-0.038048-0.021137-0.010565-0.031706zm0.17755 0.021138-0.00423 0.029593-0.00212 0.012686 0.012686 0.021138 0.029593-0.00634 0.012686-0.03382v-0.031706l-0.021136-0.019024-0.023251-0.00423zm-0.059185-0.097233-0.063413-0.00211 0.00212 0.012686 0.00423 0.019024 0.012686 0.01691h0.046503l0.029593-0.012686-0.00634-0.023252z" fill="#0ff" stroke="#1a1a1a" stroke-width=".0071885"/></g></svg>
